<svg class="icon icon-stroke" xmlns="http://www.w3.org/2000/svg" width="24" height="24" viewBox="0 0 32 32" fill="none" stroke-width="1.3" stroke="currentColor" stroke-linecap="round" stroke-linejoin="round"><path d="M9.6 19.4c1.8 1.8 4.1 2.6 6.4 2.6s4.6-.9 6.4-2.6c3.5-3.5 3.5-9.2 0-12.7s-9.2-3.5-12.7 0c-3.6 3.4-3.6 9.2-.1 12.7z"></path><path d="M26.6 22.2l-1.5-1.5c-.4-.4-1-.4-1.4 0-4.3 4.3-11.3 4.3-15.5.1C4 16.5 4 9.6 8.3 5.3c.2-.2.3-.4.3-.7s-.1-.5-.3-.7L6.8 2.4c-.4-.4-1-.4-1.4 0-.4.4-.4 1 0 1.4l.8.8C1.9 9.7 2 17.4 6.8 22.2c2.3 2.3 5.2 3.5 8.2 3.7V27c0 1.1-.9 2-2 2h-1c-.6 0-1 .4-1 1s.4 1 1 1h8c.6 0 1-.4 1-1s-.4-1-1-1h-1c-1.1 0-2-.9-2-2v-1.1c2.6-.2 5.2-1.3 7.4-3.1l.8.8c.4.4 1 .4 1.4 0 .4-.4.4-1 0-1.4z"></path></svg>