<svg class="icon" xmlns="http://www.w3.org/2000/svg" width="24" height="24" viewBox="0 0 24 24"><!--Boxicons v3.0 https://boxicons.com | License  https://docs.boxicons.com/license/free | Modified by Lulling--><path d="M19,14l0,-3.329c0,-0.16 -0.063,-0.312 -0.176,-0.425c-0.112,-0.113 -0.265,-0.176 -0.424,-0.176c-2.282,0 -10.402,0 -12.756,0c-0.356,0 -0.644,0.289 -0.644,0.644c-0,1.115 -0,3.286 -0,3.286l-2.443,0c-0.148,-0 -0.289,0.059 -0.394,0.163c-0.104,0.105 -0.163,0.246 -0.163,0.394c-0,0.592 -0,1.443 -0,1.443l0.367,0c0.35,0 0.633,0.283 0.633,0.633c-0,0.743 -0,1.97 -0,2.719c-0,0.172 -0.068,0.337 -0.19,0.458c-0.121,0.122 -0.286,0.19 -0.458,0.19c-0.192,0 -0.352,0 -0.352,0l-0,1.385c-0,0.34 0.275,0.615 0.615,0.615c2.984,0 15.929,0 18.814,0c0.151,0 0.296,-0.06 0.404,-0.167c0.107,-0.108 0.167,-0.253 0.167,-0.404c-0,-0.592 -0,-1.429 -0,-1.429l-0.425,-0c-0.152,0 -0.299,-0.061 -0.407,-0.168c-0.107,-0.108 -0.168,-0.255 -0.168,-0.407c-0,-0.736 -0,-2.008 -0,-2.777c0,-0.172 0.068,-0.337 0.19,-0.458c0.121,-0.122 0.286,-0.19 0.458,-0.19c0.192,0 0.352,0 0.352,0l-0,-1.385c0,-0.34 -0.275,-0.615 -0.615,-0.615c-0.878,0 -2.385,0 -2.385,0Zm-4,2l-0,4l-2,0l-0,-4l2,0Zm-4,4l-2,0l-0,-4l2,0l-0,4Zm-6,-3.401c-0,-0.159 0.063,-0.311 0.176,-0.423c0.112,-0.113 0.264,-0.176 0.423,-0.176c0.589,-0 1.401,-0 1.401,-0l-0,4l-1.386,-0c-0.339,0 -0.614,-0.275 -0.614,-0.614c-0,-0.757 -0,-2.036 -0,-2.787Zm14,2.787c-0,0.339 -0.275,0.614 -0.614,0.614c-0.588,-0 -1.386,-0 -1.386,-0l-0,-4l1.43,-0c0.151,0 0.296,0.06 0.403,0.167c0.107,0.107 0.167,0.252 0.167,0.403c-0,0.746 -0,2.049 0,2.816Z" style="fill-rule:nonzero;"/><path d="M12,2.08c-5.476,0 -6.668,3.408 -6.928,4.857c-0.015,0.158 0.037,0.316 0.144,0.433c0.107,0.118 0.258,0.185 0.417,0.185c2.303,0.021 10.224,0.021 12.653,0.021c0.189,0.001 0.367,-0.083 0.488,-0.227c0.121,-0.145 0.172,-0.335 0.138,-0.521c-0.304,-1.501 -1.568,-4.748 -6.912,-4.748Z" style="fill-rule:nonzero;"/><path d="M12.028,7.765c-1.515,0 -1.515,2.177 0,2.177c1.516,-0 1.516,-2.177 0,-2.177Z" style="fill-rule:nonzero;"/><path d="M13.944,8.575c-0.386,0 -0.386,0.556 0,0.556c0.387,0 0.387,-0.556 0,-0.556Z" style="fill-rule:nonzero;"/><path d="M15.218,8.494c-0.5,0 -0.5,0.719 -0,0.719c0.5,-0 0.5,-0.719 -0,-0.719Z" style="fill-rule:nonzero;"/><path d="M10.1,8.658c-0.271,0 -0.271,0.39 0,0.39c0.272,0 0.272,-0.39 0,-0.39Z" style="fill-rule:nonzero;"/><path d="M6.649,8.35c-0.701,-0 -0.701,1.007 -0,1.007c0.701,-0 0.701,-1.007 -0,-1.007Z" style="fill-rule:nonzero;"/><path d="M8.625,8.638c-0.501,0 -0.501,0.719 -0,0.719c0.5,-0 0.5,-0.719 -0,-0.719Z" style="fill-rule:nonzero;"/><path d="M8.324,8.35c-0.402,-0 -0.402,0.576 -0,0.576c0.401,0 0.401,-0.576 -0,-0.576Z" style="fill-rule:nonzero;"/><path d="M17.462,8.405l0.074,0.17c-0,0 0.209,-0.415 0.134,-0.515c-0.05,-0.068 -0.556,0.155 -0.556,0.155l0.141,0.056c0,-0 0.212,-0.079 0.241,-0.056c0.028,0.024 -0.034,0.19 -0.034,0.19Z" style="fill-rule:nonzero;"/><path d="M16.113,9.082c-0.056,0.107 -0.22,0.442 -0.158,0.526c0.037,0.05 0.321,-0.058 0.468,-0.118c0.112,0.063 0.249,0.101 0.413,0.101c0.736,-0 0.944,-0.757 0.626,-1.186c-0.227,0.501 -0.616,0.845 -1.146,1.01l0.001,0.001c-0.065,0.022 -0.167,0.052 -0.187,0.036c-0.022,-0.018 0.034,-0.147 0.06,-0.205c0.006,0.01 0.012,0.019 0.017,0.029c0.034,0.052 0.099,0.073 0.157,0.05c0.473,-0.194 0.812,-0.499 1.016,-0.899c0.023,-0.046 0.011,-0.101 -0.03,-0.133c-0.131,-0.094 -0.32,-0.178 -0.514,-0.178c-0.513,-0 -0.77,0.369 -0.77,0.737c0,0.071 0.018,0.151 0.047,0.229Z" style="fill-rule:nonzero;"/></svg>