<svg xmlns="http://www.w3.org/2000/svg" width="32" height="32" viewBox="0 0 32 32"><g><rect class="nc-transparent-rect" x="0" y="0" width="32" height="32" rx="0" ry="0" fill="none" stroke="none"></rect><g class="nc-icon-wrapper" fill="#F7F7F7"><path d="M31.4 8.6c-.2-1.6-1.6-3-3.3-3.1-9.8-.7-14.6-.7-24.3 0C2.2 5.6.8 7 .6 8.6c-.8 5.9-.8 8.9 0 14.8.2 1.6 1.7 3 3.3 3.1 4.8.3 8.5.5 12.1.5s7.3-.2 12.2-.5c1.6-.1 3-1.5 3.3-3.1.7-5.9.7-8.9-.1-14.8zm-10.3 9.1l-6 4c-.3.2-.7.3-1.1.3-.3 0-.7-.1-.9-.2-.7-.4-1.1-1-1.1-1.8v-8c0-.8.4-1.4 1.1-1.8.7-.4 1.4-.3 2.1.1l6 4c.6.4.9 1 .9 1.7s-.4 1.3-1 1.7z"></path></g></g></svg>