<?xml version="1.0" encoding="UTF-8" standalone="no"?><!DOCTYPE svg PUBLIC "-//W3C//DTD SVG 1.1//EN" "http://www.w3.org/Graphics/SVG/1.1/DTD/svg11.dtd"><svg width="100%" height="100%" viewBox="0 0 32 32" version="1.1" xmlns="http://www.w3.org/2000/svg" xmlns:xlink="http://www.w3.org/1999/xlink" xml:space="preserve" xmlns:serif="http://www.serif.com/" style="fill-rule:evenodd;clip-rule:evenodd;stroke-linejoin:round;stroke-miterlimit:2;"><g><path id="Stroke-21" d="M22.732,26.255c0.169,-0.254 0.213,-0.572 0.12,-0.862l-1,-3.1c-0.09,-0.278 -0.296,-0.502 -0.565,-0.615c-0.269,-0.113 -0.573,-0.103 -0.834,0.028c-0.295,0.147 -0.885,0.294 -1.253,0.294c-0.477,-0 -0.805,-0.083 -0.994,-0.294c-0.171,-0.19 -0.206,-0.453 -0.206,-0.706c0,0 0,-6 0,-6c-0,-0 3,-0 3,-0c0.552,-0 1,-0.448 1,-1l0,-4c0,-0.552 -0.448,-1 -1,-1l-3,0c0,-0 0,-4 0,-4c0,-0.552 -0.448,-1 -1,-1l-3,0c-0.294,0 -0.456,0.067 -0.609,0.161c-0.109,0.067 -0.277,0.174 -0.485,0.592c-0.052,0.103 -0.086,0.215 -0.099,0.33c-0.173,1.466 -1.304,4.043 -4.149,5.077c-0.395,0.144 -0.658,0.519 -0.658,0.94l-0,2.9c-0,0.552 0.448,1 1,1l2,0c0,0 -0,6 -0,6c-0,1.746 0.647,3.945 2.332,5.407c1.12,0.971 2.699,1.637 4.88,1.593c1.297,-0.003 2.648,-0.405 3.502,-0.881c0.487,-0.272 0.833,-0.587 1.018,-0.864Z" style="fill:#f7f7f7;fill-rule:nonzero;"/></g></svg>