<?xml version="1.0" encoding="UTF-8" standalone="no"?><!DOCTYPE svg PUBLIC "-//W3C//DTD SVG 1.1//EN" "http://www.w3.org/Graphics/SVG/1.1/DTD/svg11.dtd"><svg width="100%" height="100%" viewBox="0 0 32 32" version="1.1" xmlns="http://www.w3.org/2000/svg" xmlns:xlink="http://www.w3.org/1999/xlink" xml:space="preserve" xmlns:serif="http://www.serif.com/" style="fill-rule:evenodd;clip-rule:evenodd;stroke-linejoin:round;stroke-miterlimit:2;"><g><g id="Regular-GameJolt"><path id="outline" d="M11.19,25.101l-1.202,0l-0,1.265l1.202,-0l0,-1.265Zm1.203,-2.446l-1.203,-0l0,2.446l1.203,0l-0,-1.264l1.202,-0l0,-1.182l1.206,-0l-0,-1.265l1.22,0l-0,-1.161l1.181,0l0,-1.244l1.244,0l0,-1.181l1.244,-0l0,-1.161l1.203,-0l-0,-1.244l1.161,-0l-0,-1.236l1.244,-0l-0,-1.231l1.181,-0l0,-1.161l-3.586,-0l-0,-1.182l1.161,0l-0,-1.161l1.244,0l-0,-1.348l1.181,0l0,-1.16l1.223,-0l0,-1.286l-14.512,0l0,2.446l-1.202,0l-0,2.509l-1.306,0l-0,2.343l-1.161,-0l-0,2.467l-1.223,-0l-0,2.405l7.297,-0l0,2.425l-1.202,0l-0,2.426Zm3.628,-6.012l0.02,-0l0,1.161l1.193,-0l-0,-1.161l1.212,-0l0,-1.244l1.244,-0l0,-1.236l-2.488,-0l0,-2.392l1.244,-0l0,-1.182l1.244,0l0,-1.161l1.203,0l-0,-1.348l-8.5,0l-0,2.509l-1.203,0l0,2.343l-1.202,-0l-0,2.467l6.033,-0l-0,1.244Z" style="fill:#fff;"/></g></g></svg>